<?xml version="1.0" encoding="utf-8"?>
<!-- Generator: Adobe Illustrator 27.5.0, SVG Export Plug-In . SVG Version: 6.00 Build 0)  -->
<svg version="1.1" id="Laag_2" xmlns="http://www.w3.org/2000/svg" xmlns:xlink="http://www.w3.org/1999/xlink" x="0px" y="0px"
	 viewBox="0 0 370.9 370.9" style="enable-background:new 0 0 370.9 370.9;" xml:space="preserve">
<style type="text/css">
	.st0{fill:#FFFFFF;}
	.st1{fill:#5BC5F2;}
	.st2{enable-background:new    ;}
</style>
<circle class="st0" cx="185.4" cy="185.4" r="185.7"/>
<path class="st1" d="M292.4,104.1l-90-52c-10.5-6.1-23.4-6.1-33.9,0l-90,52c-10.5,6.1-16.9,17.3-16.9,29.4v103.9
	c0,12.1,6.5,23.3,16.9,29.4l90,52c10.5,6.1,23.4,6.1,33.9,0l90-52c10.5-6.1,16.9-17.3,16.9-29.4V133.5
	C309.4,121.4,302.9,110.2,292.4,104.1z M153.3,138.2c-6.7,0-10.9,0.8-12.2,2.2s-2,4.1-2.1,8.1c-0.3,11.1-0.6,18.4-1,21.7
	c-0.5,3.4-1.6,6.6-3.1,9.6c-1.6,3-4.6,6-9,8.7c4.2,2.6,7.2,5.6,9.1,9.1c1.9,3.3,3.1,8.5,3.3,15.1l1.1,20.2c0.3,1.9,1.5,3.5,3.1,4.5
	c1.5,0.9,5.1,1.5,10.8,1.5v16.7h-3.6c-7.4,0-13.1-0.9-17.2-2.5c-3.9-1.5-7-4.5-8.8-8.3c-1.8-3.9-2.7-10.2-2.7-18.7
	c0-9.6-0.4-15.6-1.1-18.2c-0.6-2.7-1.9-5.3-3.7-7.4c-1.8-2.1-5.4-3.3-10.5-3.5v-16.8c5,0,8.9-1.5,11.4-4.5c2.6-2.9,3.9-9.5,3.9-19.9
	c0-7.8,0.2-13.6,0.9-17.4c0.4-3.5,1.9-6.8,4.2-9.5c2.3-2.6,5.3-4.6,8.7-5.6c3.5-1,8.5-1.7,15-1.7h3.7L153.3,138.2z M265.3,197
	c-5.2,0-8.9,1.5-11.5,4.5c-2.5,2.9-3.8,9.6-3.8,19.9c0.1,5.9-0.2,11.7-0.9,17.5c-0.4,3.5-1.9,6.8-4.2,9.6c-2.3,2.6-5.3,4.5-8.7,5.6
	c-3.5,1-8.5,1.6-15,1.6h-3.8V239c6.6,0,10.5-0.7,12-2c1.3-1.3,2.2-4.1,2.2-8.3c0.3-11.9,0.8-19.6,1.3-22.9c0.6-3.3,1.8-6.6,3.5-9.5
	c2-3.2,4.9-5.8,8.2-7.6c-3.9-2.7-6.8-5.2-8.4-7.7c-1.6-2.5-2.7-5.4-3.2-8.3c-0.5-2.9-0.9-8.3-1.2-16.5c-0.3-7.9-0.7-12.5-1-13.7
	s-1.3-2.1-2.7-3s-5-1.3-10.9-1.3v-16.7h3.7c7.5,0,13.2,0.9,17.3,2.6c3.9,1.5,7.1,4.5,8.8,8.4c1.9,3.8,2.9,10,2.9,18.7
	c0,9.8,0.3,16,1,18.6c0.8,2.6,2.1,4.9,3.9,6.9c1.8,2.2,5.2,3.2,10.4,3.5L265.3,197z"/>
<g class="st2">
	<path d="M117.1,273.9h-8.3c-3.6,0-5.2-2.7-5.2-5.2c0-2.7,1.9-5.2,5.2-5.2h28c3.3,0,5.2,2.6,5.2,5.2c0,2.6-1.5,5.2-5.2,5.2h-8.3
		v38.2c0,3.8-2.4,5.9-5.7,5.9c-3.3,0-5.7-2.1-5.7-5.9V273.9z"/>
	<path d="M150,268.9c1.3-3.5,4.3-6.3,8.1-6.3c4,0,6.8,2.7,8.1,6.3l14.9,41.3c0.5,1.2,0.6,2.3,0.6,2.8c0,3-2.4,5-5.2,5
		c-3.2,0-4.8-1.7-5.5-4l-2.3-7.1h-21.1l-2.3,7.1c-0.8,2.4-2.4,4-5.5,4c-3,0-5.6-2.3-5.6-5.3c0-1.2,0.4-2.1,0.5-2.5L150,268.9z
		 M150.8,296.4h14.4l-7.1-22h-0.2L150.8,296.4z"/>
	<path d="M185.3,269.2c0-3.6,2.5-5.7,6-5.7h14.6c7.9,0,14.3,5.3,14.3,13.4c0,5.3-2.2,8.9-7.1,11.2v0.2c6.5,0.9,11.6,6.3,11.6,12.9
		c0,10.7-7.1,16.5-17.6,16.5h-15.7c-3.5,0-6.1-2.2-6.1-5.8V269.2z M196.7,284.9h5.9c3.7,0,6.2-2.2,6.2-6c0-3.6-2.8-5.4-6.2-5.4h-5.9
		V284.9z M196.7,307.5h9c4.1,0,7.1-2.4,7.1-6.6c0-3.6-2.7-6-8.1-6h-8.1V307.5z"/>
	<path d="M261,270.1c0,3-2,5.6-5.1,5.6s-5.5-2.3-10.1-2.3c-3.3,0-6.2,1.7-6.2,4.9c0,7.8,25.4,2.8,25.4,22.4c0,10.9-9,17.6-19.5,17.6
		c-5.9,0-18.5-1.4-18.5-8.5c0-3,2-5.4,5.1-5.4c3.6,0,7.8,3,12.8,3c5,0,7.8-2.8,7.8-6.5c0-9-25.4-3.6-25.4-21.2
		c0-10.6,8.7-17.3,18.8-17.3C250.3,262.5,261,264.1,261,270.1z"/>
</g>
<g class="st2">
	<path d="M123.7,63.2c0,3-2,5.6-5.1,5.6s-5.5-2.3-10.1-2.3c-3.3,0-6.2,1.7-6.2,4.9c0,7.8,25.4,2.8,25.4,22.4
		c0,10.9-9,17.6-19.5,17.6c-5.9,0-18.5-1.4-18.5-8.5c0-3,2-5.4,5.1-5.4c3.6,0,7.8,3,12.8,3c5,0,7.8-2.8,7.8-6.5
		c0-9-25.4-3.6-25.4-21.2c0-10.6,8.7-17.3,18.8-17.3C113.1,55.6,123.7,57.2,123.7,63.2z"/>
	<path d="M132.6,62c0-3.8,2.4-5.9,5.7-5.9s5.7,2.1,5.7,5.9v16.1h23.9V62c0-3.8,2.4-5.9,5.7-5.9s5.7,2.1,5.7,5.9v43.2
		c0,3.8-2.4,5.9-5.7,5.9s-5.7-2.1-5.7-5.9V88.6H144v16.6c0,3.8-2.4,5.9-5.7,5.9s-5.7-2.1-5.7-5.9V62z"/>
	<path d="M186.1,63.2c0-3.8,1.9-6.6,5.9-6.6h18.8c3.6,0,5.4,2.6,5.4,5.2c0,2.6-1.8,5.2-5.4,5.2h-13.4v11.1h12.5
		c3.7,0,5.5,2.6,5.5,5.2c0,2.6-1.9,5.2-5.5,5.2h-12.5v11.6h14.1c3.6,0,5.4,2.6,5.4,5.2c0,2.6-1.8,5.2-5.4,5.2h-19.6
		c-3.3,0-5.9-2.3-5.9-5.7V63.2z"/>
	<path d="M221.2,62c0-3.8,2.4-5.9,5.7-5.9c3.3,0,5.7,2.1,5.7,5.9v38.2h13.5c3.9,0,5.5,2.9,5.5,5.5c-0.2,2.5-2.1,5-5.5,5h-19
		c-3.7,0-5.9-2.4-5.9-6.2V62z"/>
	<path d="M253.6,62c0-3.8,2.4-5.9,5.7-5.9c3.3,0,5.7,2.1,5.7,5.9v38.2h13.5c3.9,0,5.5,2.9,5.5,5.5c-0.2,2.5-2.1,5-5.5,5h-19
		c-3.7,0-5.9-2.4-5.9-6.2V62z"/>
</g>
</svg>
